<svg enable-background="new 0 0 512 512" height="512" viewBox="0 0 512 512" width="512" xmlns="http://www.w3.org/2000/svg"><g id="BULINE"><circle id="XMLID_175_" cx="256" cy="256" fill="#f7bb38" r="256"/></g><g id="Icons"><g id="XMLID_466_"><path id="XMLID_816_" d="m511.19 276.4c-2.17 27.63-8.74 54.02-19 78.49-4.76 11.37-10.32 22.32-16.61 32.78-44.76 74.49-126.35 124.33-219.58 124.33s-174.82-49.84-219.58-124.33c-6.29-10.46-11.85-21.41-16.61-32.78-12.76-30.43-19.81-63.84-19.81-98.89 0-19.66 2.22-38.8 6.42-57.19 61.61 8.69 110.35 38.97 127.36 84.4 5.17-.38 10.4-.64 15.68-.77 2.66-.08 5.35-.11 8.04-.11 10.98 0 21.75.55 32.24 1.62 17.69 1.79 34.58 5.04 50.33 9.52.51.14 1.01.28 1.51.43 8.9-5.32 18.28-10.27 28.11-14.79 15.36-7.07 31.79-13.09 49.1-17.82l.99-.27c.09-.03.19-.05.28-.08 72.54-19.54 143.17-12.03 191.13 15.46z" fill="#caecff"/><g id="XMLID_469_"><path id="XMLID_494_" d="m185.203 354.886h-97.203v-9.416c0-31.372 25.432-56.805 56.805-56.805h40.398z" fill="#27273d"/><g id="XMLID_474_"><path id="XMLID_493_" d="m376.087 329.493-55.184-1.351-59.521-1.469-12.323-.3-20.672-.513-11.912-.292-66.409-1.635c-10.482-48.644 24.235-132.834 24.235-132.834l31.89-122.999c.901-3.491 4.352-5.695 7.883-5.024 15.009 2.852 24.243 10.553 29.851 18.208 7.417 10.111 20.483 14.329 32.261 10.024l25.807-9.4c.987-.355 1.998-.537 3.01-.537 2.63 0 5.19 1.193 6.888 3.341 1.28 1.611 1.888 3.531 1.888 5.427 0 2.82-1.359 5.608-3.91 7.315-4.992 3.326-8.436 8.539-9.534 14.432l-21.866 117.374c-1.967 13.271 3.278 19.495 3.278 19.495l9.242 2.946 13.5 4.297 13.405 4.273c.577.182 1.153.363 1.73.537 1.54.482 3.096.94 4.645 1.374 2.528.703 5.071 1.374 7.631 1.998.743.182 1.477.379 2.188.585 43.785 12.451 41.999 64.728 41.999 64.728z" fill="#fff"/><path id="XMLID_491_" d="m165.587 215.033 40.539 58.75c5.435 7.877 16.62 9.037 23.557 2.445l51.8-49.231z" fill="#c4c4c4"/><path id="XMLID_490_" d="m376.09 329.497-55.189-1.356c-4.383-9.041-6.849-19.192-6.849-29.923 0-13.227 3.734-25.57 10.22-36.036 2.526.708 5.071 1.376 7.626 2.005 46.029 11.3 44.192 65.31 44.192 65.31z" fill="#c4c4c4"/><path id="XMLID_489_" d="m376.087 329.497-226.022-5.562c-10.485-48.644 24.234-132.832 24.234-132.832l31.889-123.005c.904-3.489 4.353-5.69 7.881-5.022 8.245 1.563 14.741 4.589 19.851 8.274l-27.634 106.604s-13.985 33.907-21.522 71.117c-6.495 32.06 17.57 62.206 50.271 63.012l139.903 3.45c1.345 8.185 1.149 13.964 1.149 13.964z" fill="#e0dfde"/><path id="XMLID_488_" d="m211.684 134.903-25.048-5.35c-4.286-.915-7.019-5.132-6.103-9.418l3.664-17.154c.915-4.286 5.132-7.019 9.418-6.103l25.048 5.35c4.286.915 7.019 5.132 6.103 9.418l-3.664 17.154c-.916 4.286-5.132 7.018-9.418 6.103z" fill="#fc4581"/><path id="XMLID_487_" d="m298.663 156.507-49.953-10.669c-5.739-1.226-9.397-6.871-8.172-12.61l2.54-11.894c1.226-5.739 6.871-9.397 12.61-8.172l49.953 10.669c5.739 1.226 9.397 6.871 8.172 12.61l-2.54 11.894c-1.225 5.739-6.871 9.397-12.61 8.172z" fill="#366fca"/><path id="XMLID_486_" d="m295.388 202.611-49.953-10.669c-5.739-1.226-9.397-6.871-8.172-12.61l2.54-11.894c1.226-5.739 6.871-9.397 12.61-8.172l49.953 10.669c5.739 1.226 9.397 6.871 8.172 12.61l-2.54 11.894c-1.226 5.739-6.872 9.398-12.61 8.172z" fill="#fc4581"/><path id="XMLID_485_" d="m295.388 248.669-49.953-10.669c-5.739-1.226-9.397-6.871-8.172-12.61l2.54-11.894c1.226-5.739 6.871-9.397 12.61-8.172l49.953 10.669c5.739 1.226 9.397 6.871 8.172 12.61l-2.54 11.894c-1.226 5.739-6.872 9.398-12.61 8.172z" fill="#366fca"/><path id="XMLID_484_" d="m203.822 182.728-25.048-5.35c-4.286-.915-7.019-5.132-6.103-9.418l3.664-17.154c.915-4.286 5.132-7.019 9.418-6.103l25.048 5.35c4.286.915 7.019 5.132 6.103 9.418l-3.664 17.154c-.915 4.286-5.132 7.018-9.418 6.103z" fill="#366fca"/><path id="XMLID_482_" d="m193.995 226.82-25.048-5.35c-4.286-.915-7.019-5.132-6.103-9.418l3.664-17.154c.915-4.286 5.132-7.019 9.418-6.103l25.048 5.35c4.286.915 7.019 5.132 6.103 9.418l-3.664 17.154c-.915 4.286-5.132 7.019-9.418 6.103z" fill="#fc4581"/><g id="XMLID_479_"><path id="XMLID_481_" d="m304.489 255.999c-7.323 3.8-16.083 8.966-25.388 15.767-15.388 11.256-34.464 28.706-50.713 54.094l-11.912-.292c17.829-29.693 39.591-49.726 56.922-62.349 6.193-4.51 12.125-8.318 17.592-11.517z" fill="#f6c752"/></g><g id="XMLID_477_"><path id="XMLID_478_" d="m334.087 264.767c-7.891 3.902-17.829 9.542-28.477 17.339-13.381 9.787-29.551 24.259-44.228 44.568l-12.323-.3c16.541-24.519 35.444-41.605 50.855-52.822 7.007-5.095 13.674-9.305 19.709-12.741 1.54.482 3.096.94 4.645 1.374 2.528.703 5.071 1.374 7.631 1.998.743.181 1.477.379 2.188.584z" fill="#f6c752"/></g><path id="XMLID_476_" d="m299.755 327.501-55.023-3.57h-93.199c-4.537 0-7.985 4.08-7.228 8.553l2.399 14.184c.802 4.745 4.912 8.218 9.724 8.218h73.999c3.001 0 5.721-1.442 7.427-3.732l57.309-3.65s1.944 4.27 5.274 4.27h61.156c7.535 0 14.146-9.361 17.864-15.947 1.617-2.864-.413-6.415-3.701-6.494z" fill="#e82d86"/><circle id="XMLID_475_" cx="219.343" cy="262.181" fill="#f7bb38" r="10.006"/></g><path id="XMLID_473_" d="m367.468 315.348h-96.176c-30.004 0-58.196 14.358-75.841 38.625l-.664.913h172.681z" fill="#3e436d"/><path id="XMLID_472_" d="m416.582 354.886h-72.019v-85.991h4.629c42.355 0 76.691 34.336 76.691 76.691-.001 5.137-4.165 9.3-9.301 9.3z" fill="#32314b"/><path id="XMLID_530_" d="m492.19 354.89c-4.76 11.37-10.32 22.32-16.61 32.78h-439.16c-6.29-10.46-11.85-21.41-16.61-32.78z" fill="#fc715a"/><path id="XMLID_470_" d="m142.5 315.348c-18.502 0-33.5 14.998-33.5 33.5v6.038h67v-6.038c0-18.501-14.998-33.5-33.5-33.5z" fill="#3e436d"/></g><g fill="#b1e5fc"><path id="XMLID_468_" d="m154.236 409.935c15.238-9.036 46.117-21.036 80.672 1.163 1.268.815 2.907.782 4.147-.075 8.13-5.62 39.475-24.477 71.632-6.465 3.411 1.911 2.063 7.116-1.846 7.083-16.66-.139-44.751 2.999-57.721 23.944-1.143 1.846-3.575 2.383-5.361 1.148-8.306-5.744-33.543-19.071-89.634-19.773-3.823-.048-5.177-5.074-1.889-7.025z"/><path id="XMLID_467_" d="m332.799 392.926c9.171-1.933 26.681-2.69 40.212 14.31.497.624 1.323.886 2.09.668 5.029-1.432 23.939-5.544 36.982 8.951 1.384 1.538-.177 3.916-2.13 3.234-8.322-2.904-22.927-6.113-32.988 2.172-.887.73-2.196.585-2.881-.337-3.183-4.291-13.557-15.261-41.535-25.158-1.907-.674-1.729-3.422.25-3.84z"/></g></g></g></svg>